<svg width="35" height="40" viewBox="0 0 35 40" fill="none" xmlns="http://www.w3.org/2000/svg">
<mask id="path-1-inside-1_1_77" fill="white">
<path d="M33.1915 7.60912e-05C33.637 7.60912e-05 34.0425 0.40554 34.0425 0.851066V39.149C34.0425 39.5946 33.637 40 33.1915 40H0.850989C0.405449 40 0 39.5945 0 39.149V8.51065C0 8.06511 0.405464 7.65966 0.850989 7.65966H9.36164V0.85099C9.36164 0.405449 9.76711 0 10.2126 0L33.1915 7.60912e-05ZM32.3405 1.70206H11.0639V38.2979H18.7234V30.6383C18.7234 30.1927 19.1289 29.7873 19.5744 29.7873H23.8298C24.2753 29.7873 24.6807 30.1928 24.6807 30.6383V38.2979H32.3403L32.3405 1.70206ZM30.6385 2.55304C31.084 2.55304 31.4895 2.95851 31.4895 3.40403V7.65936C31.4895 8.1049 31.084 8.51035 30.6385 8.51035H26.3832C25.9376 8.51035 25.5322 8.10489 25.5322 7.65936V3.40403C25.5322 2.95849 25.9377 2.55304 26.3832 2.55304H30.6385ZM23.8298 2.55304C24.2754 2.55304 24.6808 2.95851 24.6808 3.40403V7.65936C24.6808 8.1049 24.2754 8.51035 23.8298 8.51035H19.5745C19.129 8.51035 18.7235 8.10489 18.7235 7.65936V3.40403C18.7235 2.95849 19.129 2.55304 19.5745 2.55304H23.8298ZM17.0212 2.55304C17.4667 2.55304 17.8721 2.95851 17.8721 3.40403V7.65936C17.8721 8.1049 17.4667 8.51035 17.0212 8.51035H12.7658C12.3203 8.51035 11.9148 8.10489 11.9148 7.65936V3.40403C11.9148 2.95849 12.3203 2.55304 12.7658 2.55304H17.0212ZM29.7871 4.25502H27.2338V6.80837H29.7871V4.25502ZM22.9785 4.25502H20.4251V6.80837H22.9785V4.25502ZM16.1698 4.25502H13.6164V6.80837H16.1698V4.25502ZM30.6379 9.36134C31.0834 9.36134 31.4889 9.7668 31.4889 10.2123V14.4677C31.4889 14.9132 31.0834 15.3186 30.6379 15.3186H26.3826C25.937 15.3186 25.5316 14.9132 25.5316 14.4677V10.2123C25.5316 9.76679 25.937 9.36134 26.3826 9.36134H30.6379ZM23.8292 9.36134C24.2748 9.36134 24.6802 9.7668 24.6802 10.2123V14.4677C24.6802 14.9132 24.2747 15.3186 23.8292 15.3186H19.5739C19.1284 15.3186 18.7229 14.9132 18.7229 14.4677V10.2123C18.7229 9.76679 19.1284 9.36134 19.5739 9.36134H23.8292ZM17.0205 9.36134C17.4661 9.36134 17.8715 9.7668 17.8715 10.2123V14.4677C17.8715 14.9132 17.4661 15.3186 17.0205 15.3186H12.7652C12.3197 15.3186 11.9142 14.9132 11.9142 14.4677V10.2123C11.9142 9.76679 12.3197 9.36134 12.7652 9.36134H17.0205ZM9.36096 9.36134H1.70137V38.2976H9.36096V9.36134ZM7.65898 10.2123C8.10452 10.2123 8.50997 10.6178 8.50997 11.0633V15.3186C8.50997 15.7642 8.10451 16.1696 7.65898 16.1696H3.40365C2.95811 16.1696 2.55266 15.7642 2.55266 15.3186V11.0633C2.55266 10.6178 2.95813 10.2123 3.40365 10.2123H7.65898ZM29.7867 11.0633H27.2333V13.6167H29.7867V11.0633ZM22.978 11.0633H20.4247V13.6167H22.978V11.0633ZM16.1693 11.0633H13.616V13.6167H16.1693V11.0633ZM6.80761 11.9143H4.25426V14.4677H6.80761V11.9143ZM30.6374 16.1696C31.083 16.1696 31.4884 16.5751 31.4884 17.0206V21.276C31.4884 21.7215 31.083 22.1269 30.6374 22.1269H26.3821C25.9366 22.1269 25.5311 21.7215 25.5311 21.276V17.0206C25.5311 16.5751 25.9366 16.1696 26.3821 16.1696H30.6374ZM23.8288 16.1696C24.2743 16.1696 24.6798 16.5751 24.6798 17.0206V21.276C24.6798 21.7215 24.2743 22.1269 23.8288 22.1269H19.5734C19.1279 22.1269 18.7225 21.7215 18.7225 21.276V17.0206C18.7225 16.5751 19.1279 16.1696 19.5734 16.1696H23.8288ZM17.0201 16.1696C17.4656 16.1696 17.8711 16.5751 17.8711 17.0206V21.276C17.8711 21.7215 17.4656 22.1269 17.0201 22.1269H12.7648C12.3192 22.1269 11.9138 21.7215 11.9138 21.276V17.0206C11.9138 16.5751 12.3192 16.1696 12.7648 16.1696H17.0201ZM7.65837 17.0206C8.10391 17.0206 8.50936 17.4261 8.50936 17.8716V22.1269C8.50936 22.5725 8.1039 22.9779 7.65837 22.9779H3.40305C2.95751 22.9779 2.55206 22.5725 2.55206 22.1269V17.8716C2.55206 17.4261 2.95752 17.0206 3.40305 17.0206H7.65837ZM29.7861 17.8716H27.2327V20.425H29.7861V17.8716ZM22.9774 17.8716H20.424V20.425H22.9774V17.8716ZM16.1687 17.8716H13.6154V20.425H16.1687V17.8716ZM6.807 18.7226H4.25366V21.276H6.807V18.7226ZM30.6368 22.9779C31.0824 22.9779 31.4878 23.3834 31.4878 23.8289V28.0842C31.4878 28.5298 31.0824 28.9352 30.6368 28.9352H26.3815C25.936 28.9352 25.5305 28.5298 25.5305 28.0842V23.8289C25.5305 23.3834 25.936 22.9779 26.3815 22.9779H30.6368ZM23.8282 22.9779C24.2737 22.9779 24.6791 23.3834 24.6791 23.8289V28.0842C24.6791 28.5298 24.2737 28.9352 23.8282 28.9352H19.5728C19.1273 28.9352 18.7218 28.5298 18.7218 28.0842V23.8289C18.7218 23.3834 19.1273 22.9779 19.5728 22.9779H23.8282ZM17.0195 22.9779C17.465 22.9779 17.8705 23.3834 17.8705 23.8289V28.0842C17.8705 28.5298 17.465 28.9352 17.0195 28.9352H12.7642C12.3186 28.9352 11.9132 28.5298 11.9132 28.0842V23.8289C11.9132 23.3834 12.3186 22.9779 12.7642 22.9779H17.0195ZM7.65776 23.8289C8.1033 23.8289 8.50875 24.2344 8.50875 24.6799V28.9352C8.50875 29.3808 8.10329 29.7862 7.65776 29.7862H3.40244C2.9569 29.7862 2.55145 29.3808 2.55145 28.9352V24.6799C2.55145 24.2344 2.95691 23.8289 3.40244 23.8289H7.65776ZM29.7855 24.6799H27.2321V27.2333H29.7855V24.6799ZM22.9768 24.6799H20.4234V27.2333H22.9768V24.6799ZM16.1681 24.6799H13.6148V27.2333H16.1681V24.6799ZM6.8064 25.5309H4.25305V28.0842H6.8064V25.5309ZM7.65738 30.6372C8.10293 30.6372 8.50837 31.0427 8.50837 31.4882V35.7435C8.50837 36.1891 8.10291 36.5945 7.65738 36.5945H3.40206C2.95652 36.5945 2.55107 36.1891 2.55107 35.7435V31.4882C2.55107 31.0427 2.95653 30.6372 3.40206 30.6372H7.65738ZM22.9766 31.4882H20.4232V38.2969H22.9766V31.4882ZM6.80632 32.3392H4.25297V34.8925H6.80632V32.3392Z"/>
</mask>
<path d="M33.1915 7.60912e-05C33.637 7.60912e-05 34.0425 0.40554 34.0425 0.851066V39.149C34.0425 39.5946 33.637 40 33.1915 40H0.850989C0.405449 40 0 39.5945 0 39.149V8.51065C0 8.06511 0.405464 7.65966 0.850989 7.65966H9.36164V0.85099C9.36164 0.405449 9.76711 0 10.2126 0L33.1915 7.60912e-05ZM32.3405 1.70206H11.0639V38.2979H18.7234V30.6383C18.7234 30.1927 19.1289 29.7873 19.5744 29.7873H23.8298C24.2753 29.7873 24.6807 30.1928 24.6807 30.6383V38.2979H32.3403L32.3405 1.70206ZM30.6385 2.55304C31.084 2.55304 31.4895 2.95851 31.4895 3.40403V7.65936C31.4895 8.1049 31.084 8.51035 30.6385 8.51035H26.3832C25.9376 8.51035 25.5322 8.10489 25.5322 7.65936V3.40403C25.5322 2.95849 25.9377 2.55304 26.3832 2.55304H30.6385ZM23.8298 2.55304C24.2754 2.55304 24.6808 2.95851 24.6808 3.40403V7.65936C24.6808 8.1049 24.2754 8.51035 23.8298 8.51035H19.5745C19.129 8.51035 18.7235 8.10489 18.7235 7.65936V3.40403C18.7235 2.95849 19.129 2.55304 19.5745 2.55304H23.8298ZM17.0212 2.55304C17.4667 2.55304 17.8721 2.95851 17.8721 3.40403V7.65936C17.8721 8.1049 17.4667 8.51035 17.0212 8.51035H12.7658C12.3203 8.51035 11.9148 8.10489 11.9148 7.65936V3.40403C11.9148 2.95849 12.3203 2.55304 12.7658 2.55304H17.0212ZM29.7871 4.25502H27.2338V6.80837H29.7871V4.25502ZM22.9785 4.25502H20.4251V6.80837H22.9785V4.25502ZM16.1698 4.25502H13.6164V6.80837H16.1698V4.25502ZM30.6379 9.36134C31.0834 9.36134 31.4889 9.7668 31.4889 10.2123V14.4677C31.4889 14.9132 31.0834 15.3186 30.6379 15.3186H26.3826C25.937 15.3186 25.5316 14.9132 25.5316 14.4677V10.2123C25.5316 9.76679 25.937 9.36134 26.3826 9.36134H30.6379ZM23.8292 9.36134C24.2748 9.36134 24.6802 9.7668 24.6802 10.2123V14.4677C24.6802 14.9132 24.2747 15.3186 23.8292 15.3186H19.5739C19.1284 15.3186 18.7229 14.9132 18.7229 14.4677V10.2123C18.7229 9.76679 19.1284 9.36134 19.5739 9.36134H23.8292ZM17.0205 9.36134C17.4661 9.36134 17.8715 9.7668 17.8715 10.2123V14.4677C17.8715 14.9132 17.4661 15.3186 17.0205 15.3186H12.7652C12.3197 15.3186 11.9142 14.9132 11.9142 14.4677V10.2123C11.9142 9.76679 12.3197 9.36134 12.7652 9.36134H17.0205ZM9.36096 9.36134H1.70137V38.2976H9.36096V9.36134ZM7.65898 10.2123C8.10452 10.2123 8.50997 10.6178 8.50997 11.0633V15.3186C8.50997 15.7642 8.10451 16.1696 7.65898 16.1696H3.40365C2.95811 16.1696 2.55266 15.7642 2.55266 15.3186V11.0633C2.55266 10.6178 2.95813 10.2123 3.40365 10.2123H7.65898ZM29.7867 11.0633H27.2333V13.6167H29.7867V11.0633ZM22.978 11.0633H20.4247V13.6167H22.978V11.0633ZM16.1693 11.0633H13.616V13.6167H16.1693V11.0633ZM6.80761 11.9143H4.25426V14.4677H6.80761V11.9143ZM30.6374 16.1696C31.083 16.1696 31.4884 16.5751 31.4884 17.0206V21.276C31.4884 21.7215 31.083 22.1269 30.6374 22.1269H26.3821C25.9366 22.1269 25.5311 21.7215 25.5311 21.276V17.0206C25.5311 16.5751 25.9366 16.1696 26.3821 16.1696H30.6374ZM23.8288 16.1696C24.2743 16.1696 24.6798 16.5751 24.6798 17.0206V21.276C24.6798 21.7215 24.2743 22.1269 23.8288 22.1269H19.5734C19.1279 22.1269 18.7225 21.7215 18.7225 21.276V17.0206C18.7225 16.5751 19.1279 16.1696 19.5734 16.1696H23.8288ZM17.0201 16.1696C17.4656 16.1696 17.8711 16.5751 17.8711 17.0206V21.276C17.8711 21.7215 17.4656 22.1269 17.0201 22.1269H12.7648C12.3192 22.1269 11.9138 21.7215 11.9138 21.276V17.0206C11.9138 16.5751 12.3192 16.1696 12.7648 16.1696H17.0201ZM7.65837 17.0206C8.10391 17.0206 8.50936 17.4261 8.50936 17.8716V22.1269C8.50936 22.5725 8.1039 22.9779 7.65837 22.9779H3.40305C2.95751 22.9779 2.55206 22.5725 2.55206 22.1269V17.8716C2.55206 17.4261 2.95752 17.0206 3.40305 17.0206H7.65837ZM29.7861 17.8716H27.2327V20.425H29.7861V17.8716ZM22.9774 17.8716H20.424V20.425H22.9774V17.8716ZM16.1687 17.8716H13.6154V20.425H16.1687V17.8716ZM6.807 18.7226H4.25366V21.276H6.807V18.7226ZM30.6368 22.9779C31.0824 22.9779 31.4878 23.3834 31.4878 23.8289V28.0842C31.4878 28.5298 31.0824 28.9352 30.6368 28.9352H26.3815C25.936 28.9352 25.5305 28.5298 25.5305 28.0842V23.8289C25.5305 23.3834 25.936 22.9779 26.3815 22.9779H30.6368ZM23.8282 22.9779C24.2737 22.9779 24.6791 23.3834 24.6791 23.8289V28.0842C24.6791 28.5298 24.2737 28.9352 23.8282 28.9352H19.5728C19.1273 28.9352 18.7218 28.5298 18.7218 28.0842V23.8289C18.7218 23.3834 19.1273 22.9779 19.5728 22.9779H23.8282ZM17.0195 22.9779C17.465 22.9779 17.8705 23.3834 17.8705 23.8289V28.0842C17.8705 28.5298 17.465 28.9352 17.0195 28.9352H12.7642C12.3186 28.9352 11.9132 28.5298 11.9132 28.0842V23.8289C11.9132 23.3834 12.3186 22.9779 12.7642 22.9779H17.0195ZM7.65776 23.8289C8.1033 23.8289 8.50875 24.2344 8.50875 24.6799V28.9352C8.50875 29.3808 8.10329 29.7862 7.65776 29.7862H3.40244C2.9569 29.7862 2.55145 29.3808 2.55145 28.9352V24.6799C2.55145 24.2344 2.95691 23.8289 3.40244 23.8289H7.65776ZM29.7855 24.6799H27.2321V27.2333H29.7855V24.6799ZM22.9768 24.6799H20.4234V27.2333H22.9768V24.6799ZM16.1681 24.6799H13.6148V27.2333H16.1681V24.6799ZM6.8064 25.5309H4.25305V28.0842H6.8064V25.5309ZM7.65738 30.6372C8.10293 30.6372 8.50837 31.0427 8.50837 31.4882V35.7435C8.50837 36.1891 8.10291 36.5945 7.65738 36.5945H3.40206C2.95652 36.5945 2.55107 36.1891 2.55107 35.7435V31.4882C2.55107 31.0427 2.95653 30.6372 3.40206 30.6372H7.65738ZM22.9766 31.4882H20.4232V38.2969H22.9766V31.4882ZM6.80632 32.3392H4.25297V34.8925H6.80632V32.3392Z" fill="#3A3A3A" stroke="#E9E9E9" stroke-width="0.5" mask="url(#path-1-inside-1_1_77)"/>
</svg>
