<svg width="38" height="40" viewBox="0 0 38 40" fill="none" xmlns="http://www.w3.org/2000/svg">
<path d="M18.788 0C12.4429 0 7.27279 5.16996 7.27279 11.5152C7.27279 14.9747 8.82302 18.0756 11.2501 20.1893C4.59246 23.1398 0 30.3816 0 38.788C0.000422731 39.4572 0.542819 40 1.21246 40H36.3643C37.0339 40 37.5763 39.4572 37.5767 38.788C37.5767 30.3814 32.9838 23.1396 26.3266 20.1893C28.7537 18.0756 30.3039 14.9746 30.3039 11.5152C30.3039 5.16963 25.134 0 18.7887 0H18.788ZM18.788 2.42448C23.823 2.42448 27.879 6.48003 27.879 11.5155C27.879 14.947 25.9939 17.9228 23.2007 19.4701C23.1961 19.4726 23.1868 19.4671 23.1821 19.4701C23.1758 19.476 23.1694 19.4823 23.1631 19.4887C23.1508 19.4954 23.1373 19.5009 23.1251 19.5077C21.837 20.2057 20.3615 20.6064 18.788 20.6064C17.2145 20.6064 15.7391 20.2056 14.451 19.5077C14.4336 19.4984 14.4112 19.4984 14.3939 19.4887C11.5885 17.9452 9.6971 14.9563 9.6971 11.5154C9.6971 6.48002 13.753 2.42448 18.788 2.42448ZM13.731 21.8565C15.2614 22.6107 16.9714 23.0309 18.788 23.0309C20.6047 23.0309 22.3147 22.6107 23.8451 21.8565C29.981 23.7885 34.5996 29.9709 35.0573 37.5763H2.51918C2.97661 29.9709 7.59519 23.7883 13.7314 21.8565H13.731Z" fill="#3A3A3A"/>
</svg>
