<svg width="35" height="35" viewBox="0 0 35 35" fill="none" xmlns="http://www.w3.org/2000/svg">
<circle cx="17.5" cy="17.5" r="17" stroke="white"/>
<path d="M15.394 15.4471C16.0431 16.1209 16.91 16.5177 17.8237 16.563L17.8192 16.5675L17.9996 16.5673C18.9771 16.5665 19.9139 16.1629 20.6042 15.4463C21.2946 14.7296 21.6823 13.7585 21.6831 12.7463V12.7462C21.6831 11.7336 21.2957 10.7621 20.6052 10.0452C19.9146 9.32828 18.9774 8.925 17.9996 8.925C17.0218 8.925 16.0846 9.32828 15.394 10.0452C14.7035 10.7621 14.3161 11.7335 14.3161 12.7462C14.3161 13.7587 14.7035 14.7304 15.394 15.4471ZM17.9996 9.69209H18.0109C18.7851 9.69604 19.5273 10.017 20.0758 10.5864C20.6273 11.1589 20.9378 11.9355 20.9386 12.7462C20.9386 13.557 20.6283 14.3341 20.0768 14.9067C19.5254 15.479 18.7781 15.8001 17.9996 15.8001C17.2211 15.8001 16.4739 15.479 15.9224 14.9067C15.3709 14.3341 15.0606 13.557 15.0606 12.7462C15.0606 11.9353 15.3709 11.1581 15.9224 10.5856L15.9224 10.5856C16.4738 10.0131 17.2211 9.69209 17.9996 9.69209Z" fill="white" stroke="white" stroke-width="0.15"/>
<path d="M24.9997 25.075H25.0746L25.0747 25.0001L25.075 24.6915V24.6914C25.075 22.7449 24.3304 20.8778 23.0038 19.5007C21.677 18.1235 19.8774 17.3492 18 17.3492C16.1226 17.3492 14.3228 18.1233 12.9962 19.5007C11.6698 20.878 10.925 22.745 10.925 24.6914V25V25.075H11H24.9997ZM22.3774 19.9201L22.4303 19.8669L22.3774 19.9201C23.538 21.074 24.2322 22.6428 24.3204 24.3078H11.6789C11.7671 22.6429 12.4612 21.0742 13.6218 19.9201C14.8003 18.7482 16.3687 18.0944 17.9996 18.0944C19.6305 18.0944 21.1989 18.7482 22.3774 19.9201Z" fill="white" stroke="white" stroke-width="0.15"/>
</svg>
